<?xml version="1.0" standalone="no"?>
<!DOCTYPE svg PUBLIC "-//W3C//DTD SVG 20010904//EN"
 "http://www.w3.org/TR/2001/REC-SVG-20010904/DTD/svg10.dtd">
<svg version="1.0" xmlns="http://www.w3.org/2000/svg"
 width="388.000000pt" height="251.000000pt" viewBox="0 0 388.000000 251.000000"
 preserveAspectRatio="xMidYMid meet">

<g transform="translate(0.000000,251.000000) scale(0.100000,-0.100000)"
fill="#000000" stroke="none">
<path d="M510 2377 c0 -1 -9 -49 -20 -107 -21 -113 -24 -142 -12 -124 5 9 47
5 155 -14 l147 -27 0 -29 c0 -28 -1 -28 -42 -22 -173 27 -267 49 -270 64 -2
11 -285 -1548 -292 -1612 -1 -7 265 -63 310 -66 6 0 56 254 119 609 60 336
111 608 114 606 2 -2 -34 -263 -80 -579 -45 -317 -81 -578 -78 -580 5 -5 370
-58 373 -54 2 2 40 267 87 590 46 324 87 588 90 588 3 0 5 -89 5 -197 -1 -109
0 -375 2 -591 l2 -394 328 4 c323 4 328 4 408 31 189 63 321 206 353 383 48
256 -87 476 -321 526 -32 7 -58 14 -57 18 0 3 28 18 62 34 184 87 280 315 218
515 -37 120 -140 216 -280 263 -61 20 -88 22 -385 26 -257 3 -320 1 -327 -10
-5 -7 -8 -116 -8 -241 0 -126 -1 -231 -4 -233 -3 -4 -359 45 -364 50 -1 1 13
87 32 191 37 202 40 229 26 207 -7 -11 -34 -9 -148 12 -78 14 -144 26 -147 26
-3 0 -6 14 -6 31 0 27 3 30 23 26 12 -3 81 -16 154 -28 97 -17 133 -28 136
-39 2 -8 7 9 11 38 5 29 6 55 4 58 -12 11 -318 61 -318 51z m1241 -356 c103
-40 159 -124 159 -241 0 -140 -80 -246 -219 -290 -51 -16 -91 -20 -212 -20
l-148 0 -3 198 c-2 108 -2 239 0 291 l3 93 182 -4 c155 -4 190 -8 238 -27z
m-1125 -304 c6 -6 -146 -871 -157 -889 -5 -7 -24 -7 -69 0 -35 7 -65 14 -67
16 -4 4 141 843 153 887 4 15 12 15 69 4 36 -6 68 -15 71 -18z m101 -34 c-3
-10 -5 -4 -5 12 0 17 2 24 5 18 2 -7 2 -21 0 -30z m959 -414 c146 -20 234 -72
280 -165 25 -51 29 -70 29 -144 -1 -97 -24 -162 -78 -218 -83 -87 -176 -112
-418 -112 l-167 0 -7 27 c-7 28 -5 603 2 616 6 11 271 8 359 -4z m-878 -481
c64 -8 82 -15 82 -27 0 -25 -30 -205 -35 -209 -2 -3 -47 1 -100 8 -107 14
-101 6 -85 110 20 127 20 130 38 130 9 0 54 -5 100 -12z"/>
<path d="M3195 2289 c-290 -42 -537 -228 -665 -502 -68 -144 -84 -232 -85
-447 0 -160 3 -197 23 -275 76 -300 287 -521 568 -595 199 -52 496 -30 686 52
l48 20 0 102 0 102 -67 -33 c-113 -54 -226 -77 -388 -77 -125 0 -149 3 -221
27 -157 52 -280 160 -353 310 -57 115 -72 181 -78 342 -6 174 15 295 75 419
122 254 359 388 657 372 110 -6 229 -33 313 -71 30 -14 59 -25 64 -25 5 0 8
45 6 107 -3 104 -4 108 -29 120 -108 52 -379 77 -554 52z"/>
<path d="M70 245 l0 -155 1880 0 1880 0 0 155 0 155 -1880 0 -1880 0 0 -155z"/>
</g>
</svg>
